<?xml version="1.0" encoding="utf-8"?>
<svg version="1.1" xmlns="http://www.w3.org/2000/svg" x="0px" y="0px" viewBox="0 0 118.74 118.74">
 <path fill="#FCD213" d="M26.18,2.95C14.36,5.12,5.12,14.36,2.95,26.18C1.04,36.62,0,47.78,0,59.37s1.04,22.75,2.95,33.19	c2.17,11.81,11.41,21.05,23.22,23.22c10.44,1.92,21.6,2.95,33.19,2.95s22.75-1.04,33.19-2.95c11.81-2.17,21.05-11.41,23.22-23.22	c1.92-10.44,2.95-21.6,2.95-33.19c0-11.61-1.04-22.78-2.96-33.23C113.61,14.35,104.39,5.13,92.6,2.96C82.15,1.04,70.98,0,59.37,0	C47.78,0,36.62,1.04,26.18,2.95z"/>
 <path d="M93.63,46.13L93.63,46.13c-1.26-11.05-9.97-19.76-21.02-21.01l-0.17-0.02c-8.68-0.98-17.44-0.98-26.13,0l-0.17,0.02 c-11.05,1.25-19.77,9.96-21.02,21.01l0,0c-0.5,4.4-0.75,8.82-0.74,13.24c0,0,0,0.27,0,0.32c0,20.04,2.65,32.03,2.65,32.03v0l0,0h0 c0.01,0,11.99,2.65,32.03,2.65c0.04,0,0.07,0,0.11,0c0.07,0,0.14,0,0.21,0c4.36,0,8.72-0.25,13.06-0.74l0.15-0.02 c11.06-1.25,19.78-9.98,21.02-21.04l0.04-0.32C94.62,63.58,94.61,54.81,93.63,46.13z"/>
</svg>
